<svg width="24" height="18" viewBox="0 0 24 18" fill="none" xmlns="http://www.w3.org/2000/svg">
<path fill-rule="evenodd" clip-rule="evenodd" d="M0.888889 0C0.653141 0 0.427048 0.0936507 0.260349 0.26035C0.0936505 0.427049 0 0.653141 0 0.888889V2.66667C0 2.90241 0.0936505 3.12851 0.260349 3.29521C0.427048 3.4619 0.653141 3.55556 0.888889 3.55556H2.66667C2.90241 3.55556 3.12851 3.4619 3.29521 3.29521C3.4619 3.12851 3.55556 2.90241 3.55556 2.66667V0.888889C3.55556 0.653141 3.4619 0.427049 3.29521 0.26035C3.12851 0.0936507 2.90241 0 2.66667 0H0.888889ZM2.66667 0.888889H0.888889V2.66667H2.66667V0.888889Z" fill="#8C4F2B"/>
<path d="M6.22223 1.7778C6.22223 1.54206 6.31588 1.31596 6.48258 1.14927C6.64928 0.982567 6.87537 0.888916 7.11112 0.888916H23.1111C23.3469 0.888916 23.573 0.982567 23.7397 1.14927C23.9064 1.31596 24 1.54206 24 1.7778C24 2.01355 23.9064 2.23965 23.7397 2.40634C23.573 2.57304 23.3469 2.66669 23.1111 2.66669H7.11112C6.87537 2.66669 6.64928 2.57304 6.48258 2.40634C6.31588 2.23965 6.22223 2.01355 6.22223 1.7778ZM7.11112 8.00003C6.87537 8.00003 6.64928 8.09368 6.48258 8.26038C6.31588 8.42708 6.22223 8.65317 6.22223 8.88892C6.22223 9.12466 6.31588 9.35076 6.48258 9.51745C6.64928 9.68415 6.87537 9.7778 7.11112 9.7778H23.1111C23.3469 9.7778 23.573 9.68415 23.7397 9.51745C23.9064 9.35076 24 9.12466 24 8.88892C24 8.65317 23.9064 8.42708 23.7397 8.26038C23.573 8.09368 23.3469 8.00003 23.1111 8.00003H7.11112ZM7.11112 15.1111C6.87537 15.1111 6.64928 15.2048 6.48258 15.3715C6.31588 15.5382 6.22223 15.7643 6.22223 16C6.22223 16.2358 6.31588 16.4619 6.48258 16.6286C6.64928 16.7953 6.87537 16.8889 7.11112 16.8889H23.1111C23.3469 16.8889 23.573 16.7953 23.7397 16.6286C23.9064 16.4619 24 16.2358 24 16C24 15.7643 23.9064 15.5382 23.7397 15.3715C23.573 15.2048 23.3469 15.1111 23.1111 15.1111H7.11112Z" fill="#8C4F2B"/>
<path fill-rule="evenodd" clip-rule="evenodd" d="M0 8.00009C0 7.76435 0.0936505 7.53825 0.260349 7.37156C0.427048 7.20486 0.653141 7.11121 0.888889 7.11121H2.66667C2.90241 7.11121 3.12851 7.20486 3.29521 7.37156C3.4619 7.53825 3.55556 7.76435 3.55556 8.00009V9.77787C3.55556 10.0136 3.4619 10.2397 3.29521 10.4064C3.12851 10.5731 2.90241 10.6668 2.66667 10.6668H0.888889C0.653141 10.6668 0.427048 10.5731 0.260349 10.4064C0.0936505 10.2397 0 10.0136 0 9.77787V8.00009ZM0.888889 8.00009H2.66667V9.77787H0.888889V8.00009ZM0.888889 14.2223C0.653141 14.2223 0.427048 14.316 0.260349 14.4827C0.0936505 14.6494 0 14.8755 0 15.1112V16.889C0 17.1247 0.0936505 17.3508 0.260349 17.5175C0.427048 17.6842 0.653141 17.7779 0.888889 17.7779H2.66667C2.90241 17.7779 3.12851 17.6842 3.29521 17.5175C3.4619 17.3508 3.55556 17.1247 3.55556 16.889V15.1112C3.55556 14.8755 3.4619 14.6494 3.29521 14.4827C3.12851 14.316 2.90241 14.2223 2.66667 14.2223H0.888889ZM2.66667 15.1112H0.888889V16.889H2.66667V15.1112Z" fill="#8C4F2B"/>
</svg>
