<svg width="23" height="22" viewBox="0 0 23 22" fill="none" xmlns="http://www.w3.org/2000/svg">
<path d="M5.03125 0C5.22187 0 5.40469 0.0724328 5.53948 0.201364C5.67427 0.330295 5.75 0.505164 5.75 0.6875V1.375H17.25V0.6875C17.25 0.505164 17.3257 0.330295 17.4605 0.201364C17.5953 0.0724328 17.7781 0 17.9688 0C18.1594 0 18.3422 0.0724328 18.477 0.201364C18.6118 0.330295 18.6875 0.505164 18.6875 0.6875V1.375H20.125C20.8875 1.375 21.6188 1.66473 22.1579 2.18046C22.6971 2.69618 23 3.39565 23 4.125V19.25C23 19.9793 22.6971 20.6788 22.1579 21.1945C21.6188 21.7103 20.8875 22 20.125 22H2.875C2.1125 22 1.38124 21.7103 0.842068 21.1945C0.302901 20.6788 0 19.9793 0 19.25V4.125C0 3.39565 0.302901 2.69618 0.842068 2.18046C1.38124 1.66473 2.1125 1.375 2.875 1.375H4.3125V0.6875C4.3125 0.505164 4.38823 0.330295 4.52302 0.201364C4.65781 0.0724328 4.84063 0 5.03125 0V0ZM2.875 2.75C2.49375 2.75 2.12812 2.89487 1.85853 3.15273C1.58895 3.41059 1.4375 3.76033 1.4375 4.125V19.25C1.4375 19.6147 1.58895 19.9644 1.85853 20.2223C2.12812 20.4801 2.49375 20.625 2.875 20.625H20.125C20.5062 20.625 20.8719 20.4801 21.1415 20.2223C21.411 19.9644 21.5625 19.6147 21.5625 19.25V4.125C21.5625 3.76033 21.411 3.41059 21.1415 3.15273C20.8719 2.89487 20.5062 2.75 20.125 2.75H2.875Z" fill="#8C4F2B"/>
<path d="M3.59375 5.5C3.59375 5.31766 3.66948 5.1428 3.80427 5.01386C3.93906 4.88493 4.12188 4.8125 4.3125 4.8125H18.6875C18.8781 4.8125 19.0609 4.88493 19.1957 5.01386C19.3305 5.1428 19.4062 5.31766 19.4062 5.5V6.875C19.4062 7.05734 19.3305 7.2322 19.1957 7.36114C19.0609 7.49007 18.8781 7.5625 18.6875 7.5625H4.3125C4.12188 7.5625 3.93906 7.49007 3.80427 7.36114C3.66948 7.2322 3.59375 7.05734 3.59375 6.875V5.5ZM15.8125 10.3125C15.8125 10.1302 15.8882 9.9553 16.023 9.82636C16.1578 9.69743 16.3406 9.625 16.5312 9.625H17.9688C18.1594 9.625 18.3422 9.69743 18.477 9.82636C18.6118 9.9553 18.6875 10.1302 18.6875 10.3125V11.6875C18.6875 11.8698 18.6118 12.0447 18.477 12.1736C18.3422 12.3026 18.1594 12.375 17.9688 12.375H16.5312C16.3406 12.375 16.1578 12.3026 16.023 12.1736C15.8882 12.0447 15.8125 11.8698 15.8125 11.6875V10.3125ZM11.5 10.3125C11.5 10.1302 11.5757 9.9553 11.7105 9.82636C11.8453 9.69743 12.0281 9.625 12.2188 9.625H13.6562C13.8469 9.625 14.0297 9.69743 14.1645 9.82636C14.2993 9.9553 14.375 10.1302 14.375 10.3125V11.6875C14.375 11.8698 14.2993 12.0447 14.1645 12.1736C14.0297 12.3026 13.8469 12.375 13.6562 12.375H12.2188C12.0281 12.375 11.8453 12.3026 11.7105 12.1736C11.5757 12.0447 11.5 11.8698 11.5 11.6875V10.3125ZM4.3125 14.4375C4.3125 14.2552 4.38823 14.0803 4.52302 13.9514C4.65781 13.8224 4.84063 13.75 5.03125 13.75H6.46875C6.65937 13.75 6.84219 13.8224 6.97698 13.9514C7.11177 14.0803 7.1875 14.2552 7.1875 14.4375V15.8125C7.1875 15.9948 7.11177 16.1697 6.97698 16.2986C6.84219 16.4276 6.65937 16.5 6.46875 16.5H5.03125C4.84063 16.5 4.65781 16.4276 4.52302 16.2986C4.38823 16.1697 4.3125 15.9948 4.3125 15.8125V14.4375ZM8.625 14.4375C8.625 14.2552 8.70073 14.0803 8.83552 13.9514C8.97031 13.8224 9.15313 13.75 9.34375 13.75H10.7812C10.9719 13.75 11.1547 13.8224 11.2895 13.9514C11.4243 14.0803 11.5 14.2552 11.5 14.4375V15.8125C11.5 15.9948 11.4243 16.1697 11.2895 16.2986C11.1547 16.4276 10.9719 16.5 10.7812 16.5H9.34375C9.15313 16.5 8.97031 16.4276 8.83552 16.2986C8.70073 16.1697 8.625 15.9948 8.625 15.8125V14.4375Z" fill="#8C4F2B"/>
</svg>
