<svg width="23" height="21" viewBox="0 0 23 21" fill="none" xmlns="http://www.w3.org/2000/svg">
<path d="M3.59375 4.3125C3.40313 4.3125 3.22031 4.23677 3.08552 4.10198C2.95073 3.96719 2.875 3.78437 2.875 3.59375C2.875 3.40313 2.95073 3.22031 3.08552 3.08552C3.22031 2.95073 3.40313 2.875 3.59375 2.875H19.4062C19.5969 2.875 19.7797 2.95073 19.9145 3.08552C20.0493 3.22031 20.125 3.40313 20.125 3.59375C20.125 3.78437 20.0493 3.96719 19.9145 4.10198C19.7797 4.23677 19.5969 4.3125 19.4062 4.3125H3.59375ZM6.46875 1.4375C6.27813 1.4375 6.09531 1.36177 5.96052 1.22698C5.82573 1.09219 5.75 0.909374 5.75 0.71875C5.75 0.528126 5.82573 0.345309 5.96052 0.210517C6.09531 0.0757252 6.27813 0 6.46875 0H16.5312C16.7219 0 16.9047 0.0757252 17.0395 0.210517C17.1743 0.345309 17.25 0.528126 17.25 0.71875C17.25 0.909374 17.1743 1.09219 17.0395 1.22698C16.9047 1.36177 16.7219 1.4375 16.5312 1.4375H6.46875ZM0 17.9688C0 18.5406 0.227176 19.0891 0.631551 19.4934C1.03593 19.8978 1.58438 20.125 2.15625 20.125H20.8438C21.4156 20.125 21.9641 19.8978 22.3684 19.4934C22.7728 19.0891 23 18.5406 23 17.9688V7.90625C23 7.33438 22.7728 6.78593 22.3684 6.38155C21.9641 5.97718 21.4156 5.75 20.8438 5.75H2.15625C1.58438 5.75 1.03593 5.97718 0.631551 6.38155C0.227176 6.78593 0 7.33438 0 7.90625L0 17.9688ZM2.15625 18.6875C1.96563 18.6875 1.78281 18.6118 1.64802 18.477C1.51323 18.3422 1.4375 18.1594 1.4375 17.9688V7.90625C1.4375 7.71563 1.51323 7.53281 1.64802 7.39802C1.78281 7.26323 1.96563 7.1875 2.15625 7.1875H20.8438C21.0344 7.1875 21.2172 7.26323 21.352 7.39802C21.4868 7.53281 21.5625 7.71563 21.5625 7.90625V17.9688C21.5625 18.1594 21.4868 18.3422 21.352 18.477C21.2172 18.6118 21.0344 18.6875 20.8438 18.6875H2.15625Z" fill="#8C4F2B"/>
</svg>
