<svg width="17" height="19" viewBox="0 0 17 19" fill="none" xmlns="http://www.w3.org/2000/svg">
<path d="M0.167374 15.9402C0.167374 15.6391 0.167374 15.3505 0.167374 15.0493L0.0786197 10.6324C0.0786197 9.37765 0.0786197 8.12286 0.0786197 6.86806C0.0786197 6.14028 0.0786197 5.39995 0.0786197 4.65963C0.0786197 4.40867 -0.0101346 4.1828 0.000959713 3.93185C0.00595484 3.60238 0.0821304 3.27929 0.222845 2.99075C0.514339 2.46192 0.923745 2.02917 1.40993 1.73596C2.16968 1.23708 2.98752 0.861163 3.83958 0.619191C4.81594 0.350043 5.8105 0.173757 6.81285 0.0921782C7.79046 -0.00397121 8.77271 -0.0249326 9.75283 0.0294385C11.264 0.0943654 12.7588 0.407145 14.1905 0.957986C14.8725 1.21092 15.5133 1.58815 16.0877 2.07475C16.5249 2.42761 16.839 2.94266 16.9752 3.53031C17.0083 3.72934 17.0083 3.93359 16.9752 4.13261C16.931 4.58681 16.9088 5.0434 16.9086 5.50034L16.8421 7.79661C16.8421 8.56203 16.8421 9.32746 16.8421 10.0803L16.7755 12.0378C16.7755 12.6778 16.7755 13.2926 16.7755 13.9451C16.7755 14.5976 16.7755 15.0242 16.7755 15.5763C16.7692 15.7633 16.711 15.9433 16.6091 16.0908C16.1803 16.7436 15.6113 17.2618 14.956 17.5965C14.1065 18.0862 13.1983 18.4329 12.2601 18.6255C10.8353 18.9366 9.38285 19.0546 7.93337 18.9768C6.25933 18.938 4.59801 18.6382 2.99642 18.0859C2.29258 17.8575 1.62313 17.5107 1.01054 17.057C0.797269 16.8788 0.603595 16.6723 0.433637 16.4421C0.295334 16.3156 0.201027 16.1378 0.167374 15.9402V15.9402ZM0.877408 9.77918C0.877408 10.6575 0.877408 11.5359 0.877408 12.4268C0.88193 12.5548 0.92956 12.676 1.01054 12.7656C1.18404 12.9463 1.37366 13.1061 1.57635 13.2424C2.26928 13.6905 3.01698 14.0204 3.7952 14.2212C5.58301 14.7222 7.42405 14.9376 9.26468 14.8611C10.2176 14.8394 11.1675 14.7303 12.1048 14.5349C12.9676 14.3679 13.8022 14.0504 14.5788 13.5938C15.0767 13.3242 15.5076 12.9189 15.8325 12.4142C15.8758 12.3628 15.9031 12.2967 15.9102 12.226C15.9102 11.4355 15.9102 10.645 15.9656 9.85447C15.9656 9.85447 15.9656 9.75409 15.9656 9.72899C15.9656 9.7039 15.8991 9.72899 15.8769 9.72899C15.3425 10.1848 14.7469 10.5406 14.1129 10.783C12.5679 11.3702 10.95 11.6751 9.32015 11.6865C8.49468 11.7073 7.66882 11.678 6.84613 11.5986C5.79901 11.5044 4.76023 11.3156 3.73973 11.034C2.75148 10.7987 1.80599 10.3743 0.943974 9.77918H0.877408ZM8.4548 7.01864L9.70846 6.9559C10.7256 6.8994 11.7359 6.73557 12.7261 6.46653C13.6006 6.25482 14.4396 5.88628 15.2112 5.37486C15.5272 5.16731 15.7998 4.88477 16.01 4.54669C16.1126 4.37891 16.1675 4.17976 16.1675 3.97576C16.1675 3.77177 16.1126 3.57262 16.01 3.40483C15.8975 3.21794 15.7631 3.04911 15.6106 2.90292C15.1403 2.48474 14.6116 2.15819 14.0463 1.93672C12.7056 1.40527 11.3047 1.09262 9.88596 1.00818C8.98096 0.939126 8.07287 0.939126 7.16786 1.00818C6.28367 1.06622 5.40467 1.20045 4.53852 1.40971C3.65023 1.5996 2.79081 1.93347 1.98684 2.401C1.60045 2.61208 1.25675 2.9111 0.977256 3.27935C0.829726 3.47517 0.751495 3.72581 0.757641 3.98299C0.763786 4.24016 0.853873 4.48566 1.01054 4.67217C1.18827 4.92391 1.40202 5.14022 1.64291 5.31212C2.29443 5.75854 3.00113 6.09264 3.73973 6.30341C5.27843 6.76595 6.86272 7.00627 8.4548 7.01864V7.01864ZM0.833031 5.76384C0.833031 5.88932 0.833031 5.98971 0.833031 6.07754C0.833031 6.75513 0.833031 7.43272 0.833031 8.09776C0.815959 8.20885 0.823213 8.32298 0.854157 8.43016C0.885102 8.53734 0.938795 8.63432 1.01054 8.71261L1.17695 8.87573C1.7321 9.3394 2.35567 9.68779 3.0186 9.90466C4.88451 10.5448 6.8269 10.8538 8.77654 10.8207C9.58901 10.8247 10.4008 10.766 11.2062 10.645C12.1387 10.5292 13.0553 10.2848 13.9354 9.91721C14.6215 9.66868 15.2453 9.23849 15.7548 8.66242C15.8426 8.56639 15.9124 8.45136 15.9601 8.32416C16.0078 8.19697 16.0323 8.06023 16.0322 7.92209C16.0322 7.2696 16.0322 6.6673 16.0322 5.98971C16.0322 5.98971 16.0322 5.91442 16.0322 5.88932C16.0322 5.86423 15.9767 5.88932 15.9545 5.88932C15.4079 6.33429 14.8059 6.68526 14.1684 6.9308C12.5329 7.5499 10.8227 7.88002 9.09827 7.90954C7.87811 7.95432 6.65681 7.87875 5.44825 7.68368C4.38198 7.52488 3.33574 7.22589 2.33076 6.79277C1.7932 6.55345 1.28882 6.22806 0.833031 5.82658V5.76384ZM15.8769 13.7569H15.7992C15.2219 14.2588 14.5727 14.645 13.8799 14.8987C12.4746 15.4174 11.0089 15.6966 9.53095 15.7269C8.58379 15.7708 7.63511 15.7456 6.69081 15.6516C5.71509 15.5534 4.74721 15.3731 3.7952 15.1121C2.80311 14.8781 1.85377 14.4537 0.988351 13.8573V13.8573V14.0329C0.988351 14.5474 0.988351 15.0619 0.988351 15.5763C0.986348 15.6442 0.997189 15.7118 1.02015 15.7745C1.04311 15.8373 1.07766 15.8938 1.12148 15.9402C1.34825 16.1849 1.60178 16.3958 1.87589 16.5676C2.54256 16.9638 3.2508 17.2631 3.98381 17.4585C4.8889 17.7041 5.80838 17.876 6.73519 17.973C7.44522 18.0483 8.14416 18.0859 8.85419 18.0859C9.6368 18.0774 10.4183 18.0187 11.1951 17.9102C12.1187 17.7919 13.0248 17.5388 13.891 17.1574C14.5468 16.8981 15.1396 16.4683 15.6217 15.9026C15.6997 15.8185 15.7616 15.7172 15.8036 15.6049C15.8455 15.4927 15.8667 15.3719 15.8658 15.2501C15.8325 14.7858 15.8658 14.2839 15.8769 13.7569Z" fill="#8C4F2B"/>
</svg>
