<svg width="30" height="26" viewBox="0 0 30 26" fill="none" xmlns="http://www.w3.org/2000/svg">
<path d="M0.0924107 2.87397C0.278744 2.05751 0.7368 1.32852 1.39156 0.806391C2.04632 0.284262 2.85897 -5.63602e-05 3.69643 8.38006e-09H25.875C26.7125 -5.63602e-05 27.5251 0.284262 28.1799 0.806391C28.8346 1.32852 29.2927 2.05751 29.479 2.87397L14.7857 11.8544L0.0924107 2.87397ZM0 4.98463V18.1143L10.7252 11.5384L0 4.98463ZM12.4958 12.6233L0.353009 20.0642C0.652758 20.6972 1.12616 21.232 1.71808 21.6063C2.31 21.9806 2.99608 22.1791 3.69643 22.1786H15.2589C14.9447 21.2881 14.7847 20.3505 14.7857 19.4062C14.7844 18.1922 15.0496 16.9926 15.5625 15.8921C16.0753 14.7917 16.8234 13.8171 17.7539 13.0373L17.0757 12.6215L14.7857 14.0206L12.4958 12.6215V12.6233ZM29.5714 4.98463V14.1777C28.7925 13.2122 27.8071 12.4336 26.6876 11.8992C25.5682 11.3647 24.3432 11.088 23.1027 11.0893C21.8447 11.0877 20.6028 11.3721 19.4709 11.921L18.8462 11.5384L29.5714 4.98463Z" fill="#BFCDD9"/>
<path d="M29.5714 19.4062C29.5714 21.1219 28.8899 22.7672 27.6768 23.9803C26.4636 25.1935 24.8183 25.875 23.1027 25.875C21.387 25.875 19.7417 25.1935 18.5286 23.9803C17.3154 22.7672 16.6339 21.1219 16.6339 19.4062C16.6339 17.6906 17.3154 16.0453 18.5286 14.8322C19.7417 13.619 21.387 12.9375 23.1027 12.9375C24.8183 12.9375 26.4636 13.619 27.6768 14.8322C28.8899 16.0453 29.5714 17.6906 29.5714 19.4062V19.4062ZM25.8879 16.3031C25.7838 16.2407 25.6684 16.1994 25.5483 16.1816C25.4283 16.1638 25.3059 16.1699 25.1881 16.1994C25.0704 16.2289 24.9596 16.2813 24.8621 16.3537C24.7647 16.426 24.6824 16.5169 24.62 16.621L22.4576 20.225L21.4467 19.214C21.2731 19.0405 21.0378 18.943 20.7924 18.943C20.547 18.943 20.3116 19.0405 20.1381 19.214C19.9646 19.3876 19.8671 19.6229 19.8671 19.8683C19.8671 20.1137 19.9646 20.349 20.1381 20.5226L21.5686 21.9512C21.7175 22.1004 21.8985 22.2137 22.0978 22.2824C22.297 22.3512 22.5093 22.3735 22.7185 22.3479C22.9277 22.3222 23.1283 22.2492 23.3051 22.1343C23.4818 22.0195 23.63 21.8658 23.7384 21.6851L26.2058 17.571C26.2682 17.4669 26.3095 17.3515 26.3273 17.2314C26.3451 17.1113 26.339 16.9889 26.3095 16.8712C26.28 16.7534 26.2276 16.6427 26.1552 16.5452C26.0829 16.4477 25.9921 16.3655 25.8879 16.3031V16.3031Z" fill="#BFCDD9"/>
</svg>
