<svg width="27" height="31" viewBox="0 0 27 31" fill="none" xmlns="http://www.w3.org/2000/svg">
<path d="M13.5 31C14.523 31 15.5041 30.5918 16.2274 29.8651C16.9508 29.1384 17.3571 28.1529 17.3571 27.1252H9.64286C9.64286 28.1529 10.0492 29.1384 10.7726 29.8651C11.4959 30.5918 12.477 31 13.5 31ZM15.4189 2.13089C15.4458 1.8615 15.4163 1.58944 15.3321 1.33225C15.2479 1.07505 15.111 0.838436 14.9302 0.63766C14.7494 0.436885 14.5287 0.276407 14.2824 0.166576C14.036 0.0567453 13.7695 0 13.5 0C13.2305 0 12.964 0.0567453 12.7176 0.166576C12.4713 0.276407 12.2506 0.436885 12.0698 0.63766C11.889 0.838436 11.7521 1.07505 11.6679 1.33225C11.5837 1.58944 11.5542 1.8615 11.5811 2.13089C9.40124 2.5763 7.44163 3.76481 6.03405 5.49518C4.62647 7.22554 3.85742 9.39142 3.85714 11.6261C3.85714 13.7533 2.89286 23.2504 0 25.1878H27C24.1071 23.2504 23.1429 13.7533 23.1429 11.6261C23.1429 6.93757 19.8257 3.02403 15.4189 2.13089V2.13089Z" fill="#BFCDD9"/>
</svg>
