<svg width="24" height="16" viewBox="0 0 24 16" fill="none" xmlns="http://www.w3.org/2000/svg">
<path d="M12 16C6.59315 16 1.80228 12.9315 0.068441 8.3726C-0.0228137 8.13151 -0.0228137 7.86849 0.068441 7.6274C1.80228 3.06849 6.59315 0 12 0C17.4068 0 22.1977 3.06849 23.9316 7.6274C24.0228 7.86849 24.0228 8.13151 23.9316 8.3726C22.1977 12.9315 17.4068 16 12 16ZM2.37262 8C3.90114 11.4849 7.71102 13.8082 12 13.8082C16.289 13.8082 20.0989 11.4849 21.6274 8C20.0989 4.51507 16.289 2.19178 12 2.19178C7.71102 2.19178 3.90114 4.51507 2.37262 8Z" fill="#8C4F2B"/>
<path d="M12 11.7042C9.87837 11.7042 8.14453 10.0385 8.14453 8.00013C8.14453 5.96177 9.87837 4.29602 12 4.29602C14.1217 4.29602 15.8556 5.96177 15.8556 8.00013C15.8556 10.0385 14.1217 11.7042 12 11.7042ZM12 6.4878C11.1331 6.4878 10.4259 7.16725 10.4259 8.00013C10.4259 8.83301 11.1331 9.51246 12 9.51246C12.867 9.51246 13.5742 8.83301 13.5742 8.00013C13.5742 7.16725 12.867 6.4878 12 6.4878Z" fill="#8C4F2B"/>
</svg>
