<svg width="20" height="19" viewBox="0 0 20 19" fill="none" xmlns="http://www.w3.org/2000/svg">
<path fill-rule="evenodd" clip-rule="evenodd" d="M0 0.633333C0 0.465363 0.065848 0.304272 0.183058 0.185499C0.300269 0.066726 0.45924 0 0.625 0L3.125 0C3.29076 0 3.44973 0.066726 3.56694 0.185499C3.68415 0.304272 3.75 0.465363 3.75 0.633333C3.75 0.801304 3.68415 0.962395 3.56694 1.08117C3.44973 1.19994 3.29076 1.26667 3.125 1.26667H0.625C0.45924 1.26667 0.300269 1.19994 0.183058 1.08117C0.065848 0.962395 0 0.801304 0 0.633333V0.633333ZM5 0.633333C5 0.465363 5.06585 0.304272 5.18306 0.185499C5.30027 0.066726 5.45924 0 5.625 0L18.125 0C18.2908 0 18.4497 0.066726 18.5669 0.185499C18.6842 0.304272 18.75 0.465363 18.75 0.633333C18.75 0.801304 18.6842 0.962395 18.5669 1.08117C18.4497 1.19994 18.2908 1.26667 18.125 1.26667H5.625C5.45924 1.26667 5.30027 1.19994 5.18306 1.08117C5.06585 0.962395 5 0.801304 5 0.633333V0.633333ZM0 3.16667C0 2.9987 0.065848 2.83761 0.183058 2.71883C0.300269 2.60006 0.45924 2.53333 0.625 2.53333H3.125C3.29076 2.53333 3.44973 2.60006 3.56694 2.71883C3.68415 2.83761 3.75 2.9987 3.75 3.16667C3.75 3.33464 3.68415 3.49573 3.56694 3.6145C3.44973 3.73327 3.29076 3.8 3.125 3.8H0.625C0.45924 3.8 0.300269 3.73327 0.183058 3.6145C0.065848 3.49573 0 3.33464 0 3.16667ZM5 3.16667C5 2.9987 5.06585 2.83761 5.18306 2.71883C5.30027 2.60006 5.45924 2.53333 5.625 2.53333H16.875C17.0408 2.53333 17.1997 2.60006 17.3169 2.71883C17.4342 2.83761 17.5 2.9987 17.5 3.16667C17.5 3.33464 17.4342 3.49573 17.3169 3.6145C17.1997 3.73327 17.0408 3.8 16.875 3.8H5.625C5.45924 3.8 5.30027 3.73327 5.18306 3.6145C5.06585 3.49573 5 3.33464 5 3.16667ZM0 5.7C0 5.53203 0.065848 5.37094 0.183058 5.25217C0.300269 5.13339 0.45924 5.06667 0.625 5.06667H3.125C3.29076 5.06667 3.44973 5.13339 3.56694 5.25217C3.68415 5.37094 3.75 5.53203 3.75 5.7C3.75 5.86797 3.68415 6.02906 3.56694 6.14783C3.44973 6.26661 3.29076 6.33333 3.125 6.33333H0.625C0.45924 6.33333 0.300269 6.26661 0.183058 6.14783C0.065848 6.02906 0 5.86797 0 5.7ZM5 5.7C5 5.53203 5.06585 5.37094 5.18306 5.25217C5.30027 5.13339 5.45924 5.06667 5.625 5.06667H19.375C19.5408 5.06667 19.6997 5.13339 19.8169 5.25217C19.9342 5.37094 20 5.53203 20 5.7C20 5.86797 19.9342 6.02906 19.8169 6.14783C19.6997 6.26661 19.5408 6.33333 19.375 6.33333H5.625C5.45924 6.33333 5.30027 6.26661 5.18306 6.14783C5.06585 6.02906 5 5.86797 5 5.7ZM0 8.23333C0 8.06536 0.065848 7.90427 0.183058 7.7855C0.300269 7.66673 0.45924 7.6 0.625 7.6H3.125C3.29076 7.6 3.44973 7.66673 3.56694 7.7855C3.68415 7.90427 3.75 8.06536 3.75 8.23333C3.75 8.4013 3.68415 8.56239 3.56694 8.68117C3.44973 8.79994 3.29076 8.86667 3.125 8.86667H0.625C0.45924 8.86667 0.300269 8.79994 0.183058 8.68117C0.065848 8.56239 0 8.4013 0 8.23333ZM5 8.23333C5 8.06536 5.06585 7.90427 5.18306 7.7855C5.30027 7.66673 5.45924 7.6 5.625 7.6H15.625C15.7908 7.6 15.9497 7.66673 16.0669 7.7855C16.1842 7.90427 16.25 8.06536 16.25 8.23333C16.25 8.4013 16.1842 8.56239 16.0669 8.68117C15.9497 8.79994 15.7908 8.86667 15.625 8.86667H5.625C5.45924 8.86667 5.30027 8.79994 5.18306 8.68117C5.06585 8.56239 5 8.4013 5 8.23333ZM0 10.7667C0 10.5987 0.065848 10.4376 0.183058 10.3188C0.300269 10.2001 0.45924 10.1333 0.625 10.1333H3.125C3.29076 10.1333 3.44973 10.2001 3.56694 10.3188C3.68415 10.4376 3.75 10.5987 3.75 10.7667C3.75 10.9346 3.68415 11.0957 3.56694 11.2145C3.44973 11.3333 3.29076 11.4 3.125 11.4H0.625C0.45924 11.4 0.300269 11.3333 0.183058 11.2145C0.065848 11.0957 0 10.9346 0 10.7667ZM5 10.7667C5 10.5987 5.06585 10.4376 5.18306 10.3188C5.30027 10.2001 5.45924 10.1333 5.625 10.1333H15.625C15.7908 10.1333 15.9497 10.2001 16.0669 10.3188C16.1842 10.4376 16.25 10.5987 16.25 10.7667C16.25 10.9346 16.1842 11.0957 16.0669 11.2145C15.9497 11.3333 15.7908 11.4 15.625 11.4H5.625C5.45924 11.4 5.30027 11.3333 5.18306 11.2145C5.06585 11.0957 5 10.9346 5 10.7667ZM0 13.3C0 13.132 0.065848 12.9709 0.183058 12.8522C0.300269 12.7334 0.45924 12.6667 0.625 12.6667H3.125C3.29076 12.6667 3.44973 12.7334 3.56694 12.8522C3.68415 12.9709 3.75 13.132 3.75 13.3C3.75 13.468 3.68415 13.6291 3.56694 13.7478C3.44973 13.8666 3.29076 13.9333 3.125 13.9333H0.625C0.45924 13.9333 0.300269 13.8666 0.183058 13.7478C0.065848 13.6291 0 13.468 0 13.3ZM5 13.3C5 13.132 5.06585 12.9709 5.18306 12.8522C5.30027 12.7334 5.45924 12.6667 5.625 12.6667H18.125C18.2908 12.6667 18.4497 12.7334 18.5669 12.8522C18.6842 12.9709 18.75 13.132 18.75 13.3C18.75 13.468 18.6842 13.6291 18.5669 13.7478C18.4497 13.8666 18.2908 13.9333 18.125 13.9333H5.625C5.45924 13.9333 5.30027 13.8666 5.18306 13.7478C5.06585 13.6291 5 13.468 5 13.3ZM0 15.8333C0 15.6654 0.065848 15.5043 0.183058 15.3855C0.300269 15.2667 0.45924 15.2 0.625 15.2H3.125C3.29076 15.2 3.44973 15.2667 3.56694 15.3855C3.68415 15.5043 3.75 15.6654 3.75 15.8333C3.75 16.0013 3.68415 16.1624 3.56694 16.2812C3.44973 16.3999 3.29076 16.4667 3.125 16.4667H0.625C0.45924 16.4667 0.300269 16.3999 0.183058 16.2812C0.065848 16.1624 0 16.0013 0 15.8333ZM5 15.8333C5 15.6654 5.06585 15.5043 5.18306 15.3855C5.30027 15.2667 5.45924 15.2 5.625 15.2H13.125C13.2908 15.2 13.4497 15.2667 13.5669 15.3855C13.6842 15.5043 13.75 15.6654 13.75 15.8333C13.75 16.0013 13.6842 16.1624 13.5669 16.2812C13.4497 16.3999 13.2908 16.4667 13.125 16.4667H5.625C5.45924 16.4667 5.30027 16.3999 5.18306 16.2812C5.06585 16.1624 5 16.0013 5 15.8333ZM0 18.3667C0 18.1987 0.065848 18.0376 0.183058 17.9188C0.300269 17.8001 0.45924 17.7333 0.625 17.7333H3.125C3.29076 17.7333 3.44973 17.8001 3.56694 17.9188C3.68415 18.0376 3.75 18.1987 3.75 18.3667C3.75 18.5346 3.68415 18.6957 3.56694 18.8145C3.44973 18.9333 3.29076 19 3.125 19H0.625C0.45924 19 0.300269 18.9333 0.183058 18.8145C0.065848 18.6957 0 18.5346 0 18.3667ZM5 18.3667C5 18.1987 5.06585 18.0376 5.18306 17.9188C5.30027 17.8001 5.45924 17.7333 5.625 17.7333H19.375C19.5408 17.7333 19.6997 17.8001 19.8169 17.9188C19.9342 18.0376 20 18.1987 20 18.3667C20 18.5346 19.9342 18.6957 19.8169 18.8145C19.6997 18.9333 19.5408 19 19.375 19H5.625C5.45924 19 5.30027 18.9333 5.18306 18.8145C5.06585 18.6957 5 18.5346 5 18.3667Z" fill="#8C4F2B"/>
</svg>
