<svg width="15" height="18" viewBox="0 0 15 18" fill="none" xmlns="http://www.w3.org/2000/svg">
<path fill-rule="evenodd" clip-rule="evenodd" d="M10.5579 8.03928C10.6078 8.09153 10.6474 8.1536 10.6744 8.22194C10.7014 8.29028 10.7153 8.36354 10.7153 8.43753C10.7153 8.51152 10.7014 8.58478 10.6744 8.65312C10.6474 8.72145 10.6078 8.78353 10.5579 8.83578L7.34362 12.2108C7.29386 12.2632 7.23474 12.3047 7.16966 12.3331C7.10457 12.3614 7.0348 12.376 6.96434 12.376C6.89387 12.376 6.8241 12.3614 6.75901 12.3331C6.69393 12.3047 6.63481 12.2632 6.58505 12.2108L4.97791 10.5233C4.9281 10.471 4.88859 10.4089 4.86163 10.3406C4.83467 10.2722 4.8208 10.199 4.8208 10.125C4.8208 10.0511 4.83467 9.97783 4.86163 9.9095C4.88859 9.84117 4.9281 9.77908 4.97791 9.72678C5.0785 9.62116 5.21493 9.56182 5.35719 9.56182C5.42763 9.56182 5.49738 9.57639 5.56246 9.60469C5.62754 9.63299 5.68667 9.67448 5.73648 9.72678L6.96434 11.0172L9.79934 8.03928C9.8491 7.98689 9.90822 7.94533 9.9733 7.91698C10.0384 7.88862 10.1082 7.87402 10.1786 7.87402C10.2491 7.87402 10.3189 7.88862 10.3839 7.91698C10.449 7.94533 10.5081 7.98689 10.5579 8.03928V8.03928Z" fill="#8C4F2B"/>
<path d="M3.21429 1.6875H2.14286C1.57454 1.6875 1.02949 1.92455 0.627628 2.34651C0.225765 2.76847 0 3.34076 0 3.9375V15.75C0 16.3467 0.225765 16.919 0.627628 17.341C1.02949 17.7629 1.57454 18 2.14286 18H12.8571C13.4255 18 13.9705 17.7629 14.3724 17.341C14.7742 16.919 15 16.3467 15 15.75V3.9375C15 3.34076 14.7742 2.76847 14.3724 2.34651C13.9705 1.92455 13.4255 1.6875 12.8571 1.6875H11.7857V2.8125H12.8571C13.1413 2.8125 13.4138 2.93103 13.6148 3.142C13.8157 3.35298 13.9286 3.63913 13.9286 3.9375V15.75C13.9286 16.0484 13.8157 16.3345 13.6148 16.5455C13.4138 16.7565 13.1413 16.875 12.8571 16.875H2.14286C1.8587 16.875 1.58617 16.7565 1.38524 16.5455C1.18431 16.3345 1.07143 16.0484 1.07143 15.75V3.9375C1.07143 3.63913 1.18431 3.35298 1.38524 3.142C1.58617 2.93103 1.8587 2.8125 2.14286 2.8125H3.21429V1.6875Z" fill="#8C4F2B"/>
<path d="M9.10713 1.125C9.24921 1.125 9.38548 1.18426 9.48594 1.28975C9.58641 1.39524 9.64285 1.53832 9.64285 1.6875V2.8125C9.64285 2.96168 9.58641 3.10476 9.48594 3.21025C9.38548 3.31574 9.24921 3.375 9.10713 3.375H5.89285C5.75077 3.375 5.61451 3.31574 5.51404 3.21025C5.41358 3.10476 5.35713 2.96168 5.35713 2.8125V1.6875C5.35713 1.53832 5.41358 1.39524 5.51404 1.28975C5.61451 1.18426 5.75077 1.125 5.89285 1.125H9.10713ZM5.89285 0C5.46661 0 5.05782 0.17779 4.75643 0.494257C4.45503 0.810725 4.28571 1.23995 4.28571 1.6875V2.8125C4.28571 3.26005 4.45503 3.68928 4.75643 4.00574C5.05782 4.32221 5.46661 4.5 5.89285 4.5H9.10713C9.53337 4.5 9.94216 4.32221 10.2436 4.00574C10.545 3.68928 10.7143 3.26005 10.7143 2.8125V1.6875C10.7143 1.23995 10.545 0.810725 10.2436 0.494257C9.94216 0.17779 9.53337 0 9.10713 0L5.89285 0Z" fill="#8C4F2B"/>
</svg>
